{"accessors":[{"bufferView":0,"componentType":5126,"count":32,"min":[-13.560979843139649,-1.71099853515625,-0.6353714466094971],"max":[13.560979843139649,0.09399992227554321,4.213252067565918],"type":"VEC3","name":"Box001_vertices#0_POSITION"},{"bufferView":0,"byteOffset":12,"componentType":5120,"count":32,"type":"VEC4","name":"Box001_vertices#0_TANGENT"},{"bufferView":0,"byteOffset":16,"componentType":5120,"count":32,"type":"VEC4","name":"Box001_vertices#0_NORMAL"},{"bufferView":0,"byteOffset":20,"componentType":5122,"count":32,"type":"VEC2","name":"Box001_vertices#0_TEXCOORD_0"},{"bufferView":0,"byteOffset":24,"componentType":5122,"count":32,"type":"VEC2","name":"Box001_vertices#0_TEXCOORD_1"},{"bufferView":0,"byteOffset":28,"componentType":5123,"count":32,"type":"VEC4","name":"Box001_vertices#0_COLOR_0"},{"bufferView":1,"componentType":5123,"count":60,"type":"SCALAR","name":"Box001_indices#0"},{"bufferView":0,"byteOffset":1152,"componentType":5126,"count":64,"min":[-1.2193316221237183,-3.960783004760742,-1.4967772960662842],"max":[1.2193317413330079,15.239124298095704,1.4967772960662842],"type":"VEC3","name":"Box002_vertices#0_POSITION"},{"bufferView":0,"byteOffset":1164,"componentType":5120,"count":64,"type":"VEC4","name":"Box002_vertices#0_TANGENT"},{"bufferView":0,"byteOffset":1168,"componentType":5120,"count":64,"type":"VEC4","name":"Box002_vertices#0_NORMAL"},{"bufferView":0,"byteOffset":1172,"componentType":5122,"count":64,"type":"VEC2","name":"Box002_vertices#0_TEXCOORD_0"},{"bufferView":0,"byteOffset":1176,"componentType":5122,"count":64,"type":"VEC2","name":"Box002_vertices#0_TEXCOORD_1"},{"bufferView":0,"byteOffset":1180,"componentType":5123,"count":64,"type":"VEC4","name":"Box002_vertices#0_COLOR_0"},{"bufferView":1,"byteOffset":120,"componentType":5123,"count":84,"type":"SCALAR","name":"Box002_indices#0"},{"bufferView":0,"byteOffset":3456,"componentType":5126,"count":20,"min":[-0.6656110286712647,-7.105426934084528e-15,-0.6895968914031982],"max":[0.6656115055084229,6.429730415344238,0.7824490070343018],"type":"VEC3","name":"Box003_vertices#0_POSITION"},{"bufferView":0,"byteOffset":3468,"componentType":5120,"count":20,"type":"VEC4","name":"Box003_vertices#0_TANGENT"},{"bufferView":0,"byteOffset":3472,"componentType":5120,"count":20,"type":"VEC4","name":"Box003_vertices#0_NORMAL"},{"bufferView":0,"byteOffset":3476,"componentType":5122,"count":20,"type":"VEC2","name":"Box003_vertices#0_TEXCOORD_0"},{"bufferView":0,"byteOffset":3480,"componentType":5122,"count":20,"type":"VEC2","name":"Box003_vertices#0_TEXCOORD_1"},{"bufferView":0,"byteOffset":3484,"componentType":5123,"count":20,"type":"VEC4","name":"Box003_vertices#0_COLOR_0"},{"bufferView":1,"byteOffset":288,"componentType":5123,"count":30,"type":"SCALAR","name":"Box003_indices#0"},{"bufferView":0,"byteOffset":4176,"componentType":5126,"count":20,"min":[-0.6656110286712647,-7.105426934084528e-15,-0.6895968914031982],"max":[0.6656115055084229,6.429730415344238,0.7824490070343018],"type":"VEC3","name":"Box004_vertices#0_POSITION"},{"bufferView":0,"byteOffset":4188,"componentType":5120,"count":20,"type":"VEC4","name":"Box004_vertices#0_TANGENT"},{"bufferView":0,"byteOffset":4192,"componentType":5120,"count":20,"type":"VEC4","name":"Box004_vertices#0_NORMAL"},{"bufferView":0,"byteOffset":4196,"componentType":5122,"count":20,"type":"VEC2","name":"Box004_vertices#0_TEXCOORD_0"},{"bufferView":0,"byteOffset":4200,"componentType":5122,"count":20,"type":"VEC2","name":"Box004_vertices#0_TEXCOORD_1"},{"bufferView":0,"byteOffset":4204,"componentType":5123,"count":20,"type":"VEC4","name":"Box004_vertices#0_COLOR_0"},{"bufferView":1,"byteOffset":348,"componentType":5123,"count":30,"type":"SCALAR","name":"Box004_indices#0"},{"bufferView":0,"byteOffset":4896,"componentType":5126,"count":60,"min":[-4.008138656616211,-1.71099853515625,-0.5855667591094971],"max":[4.008138656616211,1.9275784492492676,3.7419919967651369],"type":"VEC3","name":"Box005_vertices#0_POSITION"},{"bufferView":0,"byteOffset":4908,"componentType":5120,"count":60,"type":"VEC4","name":"Box005_vertices#0_TANGENT"},{"bufferView":0,"byteOffset":4912,"componentType":5120,"count":60,"type":"VEC4","name":"Box005_vertices#0_NORMAL"},{"bufferView":0,"byteOffset":4916,"componentType":5122,"count":60,"type":"VEC2","name":"Box005_vertices#0_TEXCOORD_0"},{"bufferView":0,"byteOffset":4920,"componentType":5122,"count":60,"type":"VEC2","name":"Box005_vertices#0_TEXCOORD_1"},{"bufferView":0,"byteOffset":4924,"componentType":5123,"count":60,"type":"VEC4","name":"Box005_vertices#0_COLOR_0"},{"bufferView":1,"byteOffset":408,"componentType":5123,"count":90,"type":"SCALAR","name":"Box005_indices#0"}],"asset":{"generator":"babylon.js glTF exporter for 3dsmax 2021 v1.0.8243.41868","version":"2.0","extensions":{"ASOBO_asset_optimized":{"BoundingBoxMax":[13.560979843139649,15.239124298095704,4.213252067565918],"BoundingBoxMin":[-13.560979843139649,-3.960783004760742,-1.4967772960662842],"MajorVersion":4,"MinorVersion":4,"UseCheckerboardMaterialForMissingTextures":true,"UseOnlyFilenameForImageURI":true},"ASOBO_normal_map_convention":{"tangent_space_convention":"DirectX"}}},"bufferViews":[{"buffer":0,"byteLength":7056,"byteStride":36,"target":34962,"name":"BufferViewVertexND"},{"buffer":0,"byteLength":588,"byteOffset":7056,"target":34963,"name":"BufferViewIndex"}],"materials":[{"name":"glTFValidator_Added_Default_Material"}],"meshes":[{"primitives":[{"attributes":{"COLOR_0":5,"NORMAL":2,"POSITION":0,"TANGENT":1,"TEXCOORD_0":3,"TEXCOORD_1":4},"indices":6,"material":0,"mode":4,"extras":{"ASOBO_primitive":{"PrimitiveCount":20,"VertexType":"VTX","VertexVersion":2}}}],"name":"Box001"},{"primitives":[{"attributes":{"COLOR_0":12,"NORMAL":9,"POSITION":7,"TANGENT":8,"TEXCOORD_0":10,"TEXCOORD_1":11},"indices":13,"material":0,"mode":4,"extras":{"ASOBO_primitive":{"PrimitiveCount":28,"VertexType":"VTX","VertexVersion":2}}}],"name":"Box002"},{"primitives":[{"attributes":{"COLOR_0":19,"NORMAL":16,"POSITION":14,"TANGENT":15,"TEXCOORD_0":17,"TEXCOORD_1":18},"indices":20,"material":0,"mode":4,"extras":{"ASOBO_primitive":{"PrimitiveCount":10,"VertexType":"VTX","VertexVersion":2}}}],"name":"Box003"},{"primitives":[{"attributes":{"COLOR_0":26,"NORMAL":23,"POSITION":21,"TANGENT":22,"TEXCOORD_0":24,"TEXCOORD_1":25},"indices":27,"material":0,"mode":4,"extras":{"ASOBO_primitive":{"PrimitiveCount":10,"VertexType":"VTX","VertexVersion":2}}}],"name":"Box004"},{"primitives":[{"attributes":{"COLOR_0":33,"NORMAL":30,"POSITION":28,"TANGENT":29,"TEXCOORD_0":31,"TEXCOORD_1":32},"indices":34,"material":0,"mode":4,"extras":{"ASOBO_primitive":{"PrimitiveCount":30,"VertexType":"VTX","VertexVersion":2}}}],"name":"Box005"}],"nodes":[{"translation":[-0.0142202377,0.215266585,-2.18744588],"mesh":0,"name":"Box001"},{"translation":[0.0,0.104472637,2.05859375],"rotation":[-3.09086268e-8,-0.7071068,0.7071068,-3.09086268e-8],"mesh":1,"name":"Box002"},{"translation":[2.74672484,-0.750905037,3.15837121],"rotation":[-3.09086268e-8,-0.7071068,0.7071068,-3.09086268e-8],"scale":[0.9281604,0.9281604,0.9281604],"mesh":2,"name":"Box003"},{"translation":[-2.73125672,-0.750905037,3.15837121],"rotation":[-3.09086268e-8,-0.7071068,0.7071068,-3.09086268e-8],"scale":[0.9281604,0.9281604,0.9281604],"mesh":3,"name":"Box004"},{"translation":[-0.0142202377,2.18514585,-12.5511389],"mesh":4,"name":"Box005"},{"translation":[-3.04115844e-8,0.0287326854,0.695735931],"rotation":[0.5,-0.5,0.5,0.5],"name":"Tape001.Target"}],"scene":0,"scenes":[{"nodes":[0,1,2,3,4,5]}],"extensionsUsed":["ASOBO_normal_map_convention","ASOBO_asset_optimized"],"buffers":[{"byteLength":7644,"uri":"dc3_PaxCargo_LOD06.bin"}]}
